<?xml version="1.0" standalone="no"?>
<!DOCTYPE svg PUBLIC "-//W3C//DTD SVG 20010904//EN"
 "http://www.w3.org/TR/2001/REC-SVG-20010904/DTD/svg10.dtd">
<svg version="1.0" xmlns="http://www.w3.org/2000/svg"
 width="170.000000pt" height="191.000000pt" viewBox="0 0 170.000000 191.000000"
 preserveAspectRatio="xMidYMid meet">

<g transform="translate(0.000000,191.000000) scale(0.100000,-0.100000)"
fill="#000000" stroke="none">
<path d="M723 1828 c-20 -25 -43 -77 -43 -98 0 -19 -1 -20 -25 -4 -41 27 -61
-8 -30 -53 14 -20 14 -22 -5 -28 -11 -3 -20 -13 -20 -20 0 -19 39 -54 66 -61
19 -5 21 -11 17 -47 -3 -25 -13 -48 -24 -56 -16 -11 -19 -26 -19 -92 0 -69 2
-80 22 -93 12 -9 30 -16 40 -16 15 0 18 -9 18 -65 l0 -65 -329 0 c-253 0 -331
-3 -339 -13 -8 -9 17 -72 92 -237 126 -276 122 -270 146 -270 11 0 30 -11 42
-25 21 -24 25 -25 162 -25 l141 0 -32 -20 c-47 -28 -61 -57 -75 -145 -7 -47
-18 -84 -26 -89 -10 -6 -12 -18 -7 -42 6 -37 4 -39 -25 -24 -32 17 -98 0 -131
-32 l-29 -30 0 81 c0 46 -5 83 -11 86 -6 4 -8 22 -4 46 5 30 3 40 -9 45 -8 3
-18 14 -21 25 -4 10 -15 19 -26 19 -17 0 -19 7 -19 59 0 116 -28 127 -32 14
-3 -77 -3 -78 -31 -81 -15 -2 -27 -9 -27 -16 0 -8 -9 -16 -20 -19 -22 -6 -27
-36 -9 -54 17 -17 2 -33 -30 -33 -45 0 -61 -27 -61 -103 0 -86 12 -116 49
-123 22 -5 30 -13 35 -35 7 -35 41 -43 136 -32 61 8 65 10 68 36 4 35 15 34
29 -2 9 -25 18 -30 57 -36 26 -4 259 -4 519 0 260 3 526 6 592 6 66 -1 125 2
132 7 15 10 43 75 43 100 0 11 -9 31 -20 45 -11 14 -20 34 -20 46 0 11 -7 24
-16 29 -8 5 -17 17 -18 28 -2 13 -12 20 -34 22 -26 3 -32 8 -32 26 0 13 9 31
20 41 22 20 44 88 37 116 -10 36 14 124 41 152 26 27 27 32 31 170 1 78 0 188
-4 245 -9 136 -18 147 -114 147 -62 0 -75 3 -104 26 -18 15 -55 38 -83 52 -76
38 -80 48 -50 99 37 64 41 104 17 172 -11 32 -33 74 -48 93 -15 19 -37 51 -49
71 -16 28 -27 36 -44 34 -12 -1 -50 9 -84 22 -34 14 -89 28 -123 32 -55 6 -67
4 -105 -18 -24 -14 -56 -28 -71 -32 -26 -6 -28 -5 -25 21 2 22 -2 29 -18 31
-11 2 -25 -3 -31 -10z m381 -182 c14 -19 22 -47 24 -94 l4 -67 -36 -18 c-31
-14 -43 -15 -80 -5 -33 9 -43 16 -39 27 4 13 2 12 -10 -1 -8 -11 -28 -18 -47
-18 -28 0 -31 2 -20 15 19 23 1 18 -32 -10 -16 -14 -33 -25 -37 -25 -5 0 -20
11 -35 25 -30 28 -46 34 -26 10 11 -13 7 -15 -24 -15 -31 0 -36 3 -36 24 0 14
4 36 10 50 9 23 13 25 58 19 71 -8 142 18 208 78 60 54 81 55 118 5z m166
-196 c0 -41 -30 -88 -48 -76 -21 13 -14 43 10 42 25 -1 33 20 18 44 -7 12 -12
12 -22 2 -29 -29 -40 8 -11 40 15 17 17 17 35 2 11 -11 18 -31 18 -54z m-491
-6 c30 -6 31 -8 31 -64 0 -86 -3 -90 -70 -90 -39 0 -60 4 -63 13 -4 11 -3 136
2 145 2 4 69 2 100 -4z m185 0 l46 -7 0 -73 0 -74 -61 0 c-78 0 -98 20 -99 97
0 65 12 71 114 57z m166 -94 c0 -77 -3 -93 -20 -110 -24 -24 -38 -25 -68 -4
-22 15 -22 17 -7 35 11 11 19 42 22 83 5 53 9 66 27 74 43 21 46 17 46 -78z
m-272 -63 c-2 -16 3 -23 20 -25 12 -2 22 -7 22 -11 0 -13 -54 0 -67 17 -9 10
-9 20 -2 34 13 23 31 13 27 -15z m-54 -42 c3 -9 -1 -18 -9 -21 -16 -6 -45 12
-45 27 0 16 48 10 54 -6z m194 8 c-10 -2 -26 -2 -35 0 -10 3 -2 5 17 5 19 0
27 -2 18 -5z m-44 -86 c16 -12 10 -13 -43 -9 -45 3 -68 0 -88 -12 l-28 -17 28
25 c32 29 100 36 131 13z m-66 -280 c6 -5 12 -24 12 -43 0 -18 4 -44 9 -58 8
-18 6 -28 -5 -37 -9 -7 -18 -8 -23 -3 -8 10 -81 170 -81 178 0 6 68 -23 88
-37z m574 -41 c27 -12 35 -20 31 -34 -9 -34 -95 -114 -152 -141 -48 -22 -70
-26 -150 -26 l-94 0 -14 49 c-8 26 -12 51 -9 54 3 3 54 32 113 64 105 57 110
58 173 54 36 -2 81 -11 102 -20z m-419 -104 c21 -20 27 -34 25 -56 -4 -40 -25
-44 -33 -7 -4 17 -11 31 -16 31 -6 0 -7 -5 -4 -10 7 -12 -12 -40 -26 -40 -5 0
-9 8 -9 18 0 29 -12 34 -27 12 -19 -27 -41 -25 -55 5 -13 29 1 51 47 71 37 16
61 10 98 -24z m487 -317 c-12 -15 -40 -21 -40 -9 0 3 10 14 23 24 24 20 37 9
17 -15z m-32 -72 c3 -20 -1 -23 -27 -23 -17 0 -31 4 -31 9 0 5 -3 17 -6 26 -6
14 -1 16 27 13 26 -2 35 -8 37 -25z m-1265 -19 l37 -7 0 -113 0 -114 -57 0
c-32 0 -68 -3 -80 -6 -23 -6 -23 -6 -23 113 0 66 3 123 7 126 8 9 66 9 116 1z
m567 -3 c0 -4 -11 -6 -25 -3 -14 2 -25 6 -25 8 0 2 11 4 25 4 14 0 25 -4 25
-9z m-720 -102 c0 -62 -2 -70 -15 -59 -24 20 -19 130 6 130 5 0 9 -32 9 -71z
m1165 -21 l-1 -93 -48 -7 c-26 -4 -56 -14 -65 -22 -15 -14 -19 -14 -35 5 -12
14 -25 20 -42 16 l-25 -4 6 86 c4 47 8 92 10 99 3 8 33 12 102 12 l98 0 0 -92z
m143 70 c2 -10 -6 -30 -17 -44 -23 -29 -28 -83 -10 -116 10 -19 9 -20 -17 -14
-16 4 -32 10 -35 14 -4 4 -9 47 -12 95 l-5 88 46 -3 c35 -2 48 -7 50 -20z
m-593 -39 c-10 -15 -25 -10 -19 6 4 8 10 12 15 9 5 -3 7 -10 4 -15z m685 -30
c0 -8 5 -8 15 1 13 11 15 7 15 -28 0 -43 0 -43 -62 -33 -10 1 -10 55 -1 64 10
11 33 8 33 -4z"/>
<path d="M818 1543 c7 -3 16 -2 19 1 4 3 -2 6 -13 5 -11 0 -14 -3 -6 -6z"/>
<path d="M750 1355 c0 -8 5 -15 10 -15 6 0 10 7 10 15 0 8 -4 15 -10 15 -5 0
-10 -7 -10 -15z"/>
<path d="M922 1358 c6 -18 28 -21 28 -4 0 9 -7 16 -16 16 -9 0 -14 -5 -12 -12z"/>
</g>
</svg>
